<svg xmlns="http://www.w3.org/2000/svg" width="192" height="192" viewBox="0 0 192 192"><defs><linearGradient id="bg" x1="0%" x2="100%" y1="0%" y2="100%"><stop offset="0%" style="stop-color:#6366f1"/><stop offset="100%" style="stop-color:#3b82f6"/></linearGradient><linearGradient id="phone" x1="0%" x2="100%" y1="0%" y2="100%"><stop offset="0%" style="stop-color:#e0e7ff"/><stop offset="100%" style="stop-color:#c7d2fe"/></linearGradient></defs><rect width="192" height="192" fill="url(#bg)" rx="40"/><rect width="76" height="120" x="58" y="32" fill="url(#phone)" opacity=".95" rx="12"/><rect width="64" height="88" x="64" y="44" fill="#6366f1" opacity=".15" rx="4"/><rect width="28" height="4" x="82" y="36" fill="#6366f1" opacity=".3" rx="2"/><rect width="16" height="16" x="70" y="52" fill="#34d399" opacity=".9" rx="4"/><rect width="16" height="16" x="70" y="52" fill="#34d399" rx="4"/><rect width="16" height="16" x="92" y="52" fill="#fb923c" rx="4"/><rect width="16" height="16" x="114" y="52" fill="#f472b6" rx="4"/><rect width="16" height="16" x="70" y="74" fill="#60a5fa" rx="4"/><rect width="16" height="16" x="92" y="74" fill="#a78bfa" rx="4"/><rect width="16" height="16" x="114" y="74" fill="#fbbf24" rx="4"/><rect width="16" height="16" x="70" y="96" fill="#f87171" rx="4"/><rect width="16" height="16" x="92" y="96" fill="#2dd4bf" rx="4"/><rect width="16" height="16" x="114" y="96" fill="#818cf8" rx="4"/><circle cx="96" cy="142" r="5" fill="#6366f1" opacity=".3"/><circle cx="138" cy="46" r="22" fill="#10b981"/><circle cx="138" cy="46" r="19" fill="#34d399"/><path fill="none" stroke="#fff" stroke-linecap="round" stroke-linejoin="round" stroke-width="4" d="M128 46 L135 53 L149 39"/><circle cx="42" cy="56" r="3" fill="#fff" opacity=".6"/><circle cx="150" cy="130" r="2.5" fill="#fff" opacity=".5"/><circle cx="36" cy="140" r="2" fill="#fff" opacity=".4"/><circle cx="160" cy="80" r="2" fill="#fff" opacity=".3"/></svg>