<svg xmlns="http://www.w3.org/2000/svg" aria-hidden="true" viewBox="0 0 100 100"><path fill="currentColor" d="M50 12 C72 12 86 28 86 50 C86 68 76 80 62 86 C54 90 44 88 36 82 C26 74 22 62 24 50 C26 36 34 24 46 18 Z"/><path fill="currentColor" d="M50 12 C48 8 44 6 44 10 C44 14 48 16 50 12 Z"/><path fill="none" stroke="#fff" stroke-linecap="round" stroke-width="3" d="M44 28 C36 34 34 44 36 54 C38 62 44 68 50 70" opacity=".35"/><path fill="none" stroke="#fff" stroke-linecap="round" stroke-width="4" d="M28 64 C28 64 30 72 36 78 C40 82 46 84 50 84" opacity=".25"/><path fill="none" stroke="#fff" stroke-linecap="round" stroke-width="1.5" d="M56 18 C64 22 72 32 76 44" opacity=".25"/><path fill="none" stroke="#fff" stroke-linecap="round" stroke-width="1.5" d="M64 26 C70 32 76 42 78 56" opacity=".25"/><ellipse cx="60" cy="32" fill="#fff" opacity=".2" rx="8" ry="5" transform="rotate(-30 60 32)"/></svg>