<svg xmlns="http://www.w3.org/2000/svg" aria-hidden="true" viewBox="0 0 100 100"><circle cx="50" cy="10" r="8" fill="none" stroke="currentColor" stroke-width="4"/><rect width="6" height="8" x="47" y="16" fill="currentColor"/><path fill="currentColor" d="M36 34 L39 26 L42 34 L44 24 L47 34 L50 22 L53 34 L56 24 L59 34 L61 26 L64 34 Z"/><rect width="32" height="6" x="34" y="34" fill="currentColor"/><rect width="28" height="16" x="36" y="40" fill="currentColor" rx="4"/><path fill="currentColor" d="M34 56 L30 90 L70 90 L66 56 Z"/><rect width="12" height="16" x="58" y="60" fill="#fff" opacity=".3" rx="2"/><path fill="currentColor" d="M62 56 L68 40 L72 42 L68 58"/><ellipse cx="70" cy="37" fill="currentColor" opacity=".9" rx="5" ry="8"/><line x1="42" x2="38" y1="58" y2="88" stroke="#fff" stroke-width="1.5" opacity=".25"/><line x1="50" x2="50" y1="58" y2="88" stroke="#fff" stroke-width="1.5" opacity=".25"/><line x1="58" x2="62" y1="58" y2="88" stroke="#fff" stroke-width="1.5" opacity=".25"/></svg>