<svg xmlns="http://www.w3.org/2000/svg" aria-hidden="true" viewBox="0 0 100 100"><ellipse cx="50" cy="10" fill="currentColor" rx="8" ry="5"/><rect width="12" height="12" x="44" y="13" fill="currentColor" rx="2"/><path fill="currentColor" d="M34 25 C30 28 28 36 28 55 C28 72 35 88 50 88 C65 88 72 72 72 55 C72 36 70 28 66 25 Z" opacity=".2"/><path fill="none" stroke="currentColor" stroke-width="3" d="M34 25 C30 28 28 36 28 55 C28 72 35 88 50 88 C65 88 72 72 72 55 C72 36 70 28 66 25 Z"/><path fill="currentColor" d="M30 36 Q50 32 70 36 L70 44 Q50 40 30 44 Z" opacity=".3"/><path fill="currentColor" d="M29 44 Q50 48 71 44 L72 52 Q50 56 28 52 Z" opacity=".5"/><path fill="currentColor" d="M28 52 Q50 56 72 52 L72 62 Q50 58 28 62 Z" opacity=".7"/><path fill="currentColor" d="M28 62 Q50 58 72 62 L70 72 Q50 76 30 72 Z" opacity=".85"/><path fill="currentColor" d="M30 72 Q50 76 70 72 L68 82 Q50 86 32 82 Z"/><path fill="none" stroke="currentColor" stroke-width="2" d="M34 25 C30 28 28 36 28 55 C28 72 35 88 50 88 C65 88 72 72 72 55 C72 36 70 28 66 25 Z"/></svg>