<svg xmlns="http://www.w3.org/2000/svg" aria-hidden="true" viewBox="0 0 100 100"><rect width="16" height="36" x="12" y="46" fill="currentColor" rx="2"/><path fill="currentColor" d="M12 52 L20 44 L28 52"/><path fill="#fff" d="M14 50 Q20 44 26 50" opacity=".25"/><rect width="4" height="10" x="18" y="38" fill="currentColor" rx="1"/><rect width="12" height="4" x="14" y="41" fill="currentColor" rx="1"/><rect width="60" height="30" x="26" y="52" fill="currentColor" rx="2"/><path fill="currentColor" d="M30 52 C30 36 70 36 70 52 Z"/><ellipse cx="50" cy="52" fill="currentColor" opacity=".6" rx="20" ry="6"/><rect width="4" height="10" x="48" y="30" fill="currentColor" rx="1"/><rect width="12" height="4" x="44" y="33" fill="currentColor" rx="1"/><path fill="#fff" d="M42 82 L42 66 Q50 60 58 66 L58 82 Z" opacity=".25"/><ellipse cx="32" cy="64" fill="#fff" opacity=".25" rx="5" ry="6"/><ellipse cx="68" cy="64" fill="#fff" opacity=".25" rx="5" ry="6"/><rect width="80" height="6" x="10" y="82" fill="currentColor" opacity=".8" rx="2"/><rect width="72" height="5" x="14" y="88" fill="currentColor" opacity=".65" rx="2"/></svg>