<svg xmlns="http://www.w3.org/2000/svg" aria-hidden="true" viewBox="0 0 100 100"><rect width="16" height="12" x="2" y="44" fill="currentColor" rx="6"/><rect width="16" height="12" x="82" y="44" fill="currentColor" rx="6"/><ellipse cx="50" cy="56" fill="currentColor" opacity=".7" rx="44" ry="12"/><path fill="currentColor" d="M8 50 L92 50 L88 68 Q50 76 12 68 Z"/><ellipse cx="50" cy="50" fill="currentColor" rx="42" ry="10"/><ellipse cx="50" cy="50" fill="#fff" opacity=".15" rx="38" ry="8"/><ellipse cx="50" cy="52" fill="#fff" opacity=".2" rx="34" ry="8"/><path fill="none" stroke="#fff" stroke-linecap="round" stroke-width="3" d="M28 50 C26 46 32 44 34 50" opacity=".45"/><path fill="none" stroke="#fff" stroke-linecap="round" stroke-width="3" d="M68 50 C70 46 64 44 62 50" opacity=".45"/><ellipse cx="42" cy="48" fill="#fff" opacity=".3" rx="5" ry="3" transform="rotate(-20 42 48)"/><ellipse cx="58" cy="48" fill="#fff" opacity=".3" rx="5" ry="3" transform="rotate(20 58 48)"/><ellipse cx="50" cy="52" fill="#fff" opacity=".15" rx="18" ry="5"/><circle cx="36" cy="54" r="2" fill="#fff" opacity=".35"/><circle cx="50" cy="54" r="2" fill="#fff" opacity=".35"/><circle cx="64" cy="54" r="2" fill="#fff" opacity=".35"/><circle cx="43" cy="56" r="2" fill="#fff" opacity=".35"/><circle cx="57" cy="56" r="2" fill="#fff" opacity=".35"/></svg>